<svg width="867" height="398" viewBox="0 0 867 398" fill="none" xmlns="http://www.w3.org/2000/svg">
<mask id="mask0" mask-type="alpha" maskUnits="userSpaceOnUse" x="0" y="0" width="867" height="398">
<rect width="867" height="398" fill="#C4C4C4"/>
</mask>
<g mask="url(#mask0)">
<path opacity="0.6" d="M256 197.358C35.2 315.758 -283.667 310.025 -415.5 292.358V432.858H894.5C897.667 381.358 902.1 271.758 894.5 245.358C886.9 218.958 857.5 195.23 802 170.358C712 130.025 476.8 78.9579 256 197.358Z" fill="#F8F8F8"/>
<path opacity="0.6" d="M246 222.358C25.2 340.758 -293.667 335.025 -425.5 317.358V457.858H884.5C887.667 406.358 892.1 296.758 884.5 270.358C876.9 243.958 847.5 220.23 792 195.358C702 155.025 466.8 103.958 246 222.358Z" fill="#F4F4F4"/>
<path d="M51.5 333.5C-152 371.5 -363.833 364 -414 360.5V468.5L834 459C885.667 417.167 1019.9 381.5 961.5 371.5C903.1 361.5 985.5 309.5 864.5 309.5C583 270 361.173 275.674 51.5 333.5Z" fill="#C4D6D0"/>
</g>
</svg>
