<svg width="24" height="24" viewBox="0 0 24 24" fill="none" xmlns="http://www.w3.org/2000/svg">
<path d="M13.4326 20.0403H12C11.4475 20.0403 10.9996 19.5924 10.9996 19.0399V16.0017C10.9996 15.4492 11.4475 15.0013 12 15.0013H20.0033C20.5558 15.0013 21.0037 15.4492 21.0037 16.0017V19.0399C21.0037 19.5924 20.5558 20.0403 20.0033 20.0403H18.5707" stroke="#04986D" stroke-width="1.5" stroke-linecap="round" stroke-linejoin="round"/>
<path fill-rule="evenodd" clip-rule="evenodd" d="M13.5006 18.0025H18.5027V21.0038C18.5027 21.5563 18.0548 22.0042 17.5023 22.0042H14.501C13.9485 22.0042 13.5006 21.5563 13.5006 21.0038V18.0025Z" stroke="#04986D" stroke-width="1.5" stroke-linecap="round" stroke-linejoin="round"/>
<path fill-rule="evenodd" clip-rule="evenodd" d="M14.0008 12H18.0025C18.555 12 19.0029 12.4479 19.0029 13.0004V15.0013H13.0004V13.0004C13.0004 12.4479 13.4483 12 14.0008 12Z" stroke="#04986D" stroke-width="1.5" stroke-linecap="round" stroke-linejoin="round"/>
<path d="M7.99832 7.99832H12" stroke="#04986D" stroke-width="1.5" stroke-linecap="round" stroke-linejoin="round"/>
<path d="M7.99832 12H9.99915" stroke="#04986D" stroke-width="1.5" stroke-linecap="round" stroke-linejoin="round"/>
<path d="M19.0029 8.99875V4.99708C19.0029 3.89205 18.1071 2.99625 17.0021 2.99625H5.99751C4.89248 2.99625 3.99667 3.89205 3.99667 4.99708V18.0025C3.99667 19.1075 4.89248 20.0033 5.99751 20.0033H7.99834" stroke="#04986D" stroke-width="1.5" stroke-linecap="round" stroke-linejoin="round"/>
</svg>
