<svg width="288" height="300" viewBox="0 0 288 300" fill="none" xmlns="http://www.w3.org/2000/svg">
<path d="M239.794 118.791L216.181 198.448C215.103 201.975 211.87 204.425 208.147 204.425L112.421 204.718C107.326 204.718 103.309 200.505 103.603 195.41C103.897 190.707 107.718 186.984 112.421 186.984H149.065L178.361 105.27H229.604C236.658 105.27 241.753 112.03 239.794 118.791Z" fill="#455A64"/>
<path d="M180.516 193.843C168.449 193.843 158.666 193.711 158.666 193.549C158.666 193.387 168.449 193.255 180.516 193.255C192.583 193.255 202.365 193.387 202.365 193.549C202.365 193.711 192.583 193.843 180.516 193.843Z" fill="#263238"/>
<path d="M232.738 107.817C232.542 107.719 226.075 126.825 218.139 150.438C210.301 174.051 204.03 193.157 204.226 193.255C204.422 193.353 210.888 174.247 218.825 150.634C226.663 127.021 232.836 107.915 232.738 107.817Z" fill="#263238"/>
<path d="M162.684 275.166L168.562 275.068V204.425H162.684V275.166Z" fill="#455A64"/>
<path d="M192.763 274.872H138.482L163.075 266.347H168.954L192.763 274.872Z" fill="#455A64"/>
<path d="M206.578 87.0455L197.563 131.92L199.131 165.527L138.678 155.435L141.029 125.943V101.546L126.333 130.352L114.771 108.111L135.935 69.8992C139.756 65.882 144.361 62.9427 149.75 60.9831C152.395 60.0033 155.138 59.4154 158.372 59.3174C165.328 61.473 172.285 61.473 179.241 59.3174C180.123 59.4154 181.299 59.5134 182.769 59.7093C182.867 59.7093 182.965 59.7093 183.063 59.7093C195.898 61.277 205.696 71.8588 206.382 84.792L206.578 87.0455Z" fill="#857D8E"/>
<path d="M182.867 59.6114C182.867 59.6114 207.656 59.8074 210.791 85.9678L211.183 105.172L189.824 104.976L182.867 59.6114Z" fill="#857D8E"/>
<path d="M123.493 93.4142C123.493 93.6102 142.991 93.7081 167.093 93.7081C191.196 93.7081 210.694 93.5122 210.694 93.4142C210.694 93.2182 191.196 93.1203 167.093 93.1203C143.089 93.0223 123.493 93.2182 123.493 93.4142Z" fill="#FAFAFA"/>
<path d="M123.493 97.5293C123.493 97.7252 142.991 97.8232 167.093 97.8232C191.196 97.8232 210.694 97.6272 210.694 97.5293C210.694 97.3333 191.196 97.2353 167.093 97.2353C143.089 97.2353 123.493 97.3333 123.493 97.5293Z" fill="#FAFAFA"/>
<path d="M124.961 89.8869C124.961 90.0828 144.165 90.1808 167.876 90.1808C191.587 90.1808 210.791 89.9849 210.791 89.8869C210.791 89.6909 191.587 89.5929 167.876 89.5929C144.165 89.5929 124.961 89.7889 124.961 89.8869Z" fill="#FAFAFA"/>
<path d="M140.679 106.621C140.39 93.5288 140.288 82.9123 140.451 82.9087C140.613 82.9051 140.978 93.5158 141.266 106.608C141.554 119.701 141.656 130.318 141.494 130.321C141.332 130.325 140.967 119.714 140.679 106.621Z" fill="#263238"/>
<path d="M149.947 113.108C149.947 113.108 138.189 113.99 136.132 117.027C133.976 120.163 130.841 128.981 132.017 129.079C133.193 129.177 134.172 128.393 134.172 128.393L137.406 122.71C137.406 122.71 136.916 128.197 138.777 128.295C140.737 128.393 150.241 130.352 150.241 130.352L149.947 113.108Z" fill="#FFBE9D"/>
<path d="M211.183 100.175V130.45C210.792 137.505 204.129 142.6 197.27 141.032L149.947 131.234L150.044 111.834L190.902 119.673L191.49 99.097L211.183 100.175Z" fill="#857D8E"/>
<path d="M184.141 138.583C184.141 138.583 183.945 138.485 183.553 138.387C183.064 138.289 182.476 138.191 181.692 137.995C180.026 137.603 177.675 137.113 174.735 136.525C168.661 135.251 160.234 133.586 150.143 131.528L150.338 131.822C150.338 125.747 150.338 118.987 150.338 111.932L149.947 112.226C152.592 112.716 155.433 113.304 158.275 113.794C170.228 116.047 181.398 118.203 190.804 119.966L191.196 120.064V119.673C190.902 110.658 190.608 103.114 190.412 97.8232C190.314 95.2757 190.216 93.2182 190.118 91.7485C190.118 91.0626 190.02 90.5727 190.02 90.1808C190.02 89.7889 190.02 89.5929 189.922 89.5929C189.922 89.5929 189.922 89.7889 189.922 90.1808C189.922 90.5727 189.922 91.1606 189.922 91.7485C189.922 93.2182 190.02 95.2757 190.02 97.8232C190.118 103.114 190.314 110.658 190.51 119.673L190.804 119.379C181.398 117.517 170.228 115.361 158.275 113.108C155.433 112.52 152.592 112.03 149.947 111.54L149.555 111.442V111.834C149.555 118.987 149.555 125.649 149.555 131.724V132.018H149.751C159.842 133.977 168.367 135.643 174.441 136.819C177.381 137.407 179.732 137.799 181.398 138.093C182.182 138.191 182.77 138.289 183.259 138.387C183.945 138.583 184.141 138.68 184.141 138.583Z" fill="#263238"/>
<path d="M157.001 59.6113C157.001 59.6113 156.903 59.7093 156.805 60.1012C156.707 60.3952 156.609 60.8851 156.413 61.4729C156.217 62.6487 156.021 64.4123 156.609 66.5679C157.197 68.6254 158.569 70.9769 160.724 72.9365C162.88 74.8961 166.015 76.2678 169.346 76.1698C172.677 76.1698 175.911 74.7981 177.87 72.7405C179.928 70.585 180.81 68.0375 181.006 65.882C181.202 63.7265 180.81 61.9628 180.418 60.7871C180.222 60.1992 180.026 59.8073 179.83 59.5134C179.634 59.2194 179.536 59.1214 179.536 59.1214C179.438 59.1214 179.83 59.7093 180.222 60.8851C180.614 61.9628 180.908 63.7265 180.614 65.784C180.32 67.8416 179.438 70.2911 177.478 72.2506C175.617 74.2102 172.58 75.484 169.444 75.484C166.211 75.484 163.272 74.3082 161.214 72.4466C159.156 70.585 157.785 68.4295 157.197 66.4699C156.609 64.5103 156.609 62.7467 156.805 61.5709C156.805 60.2972 157.001 59.7093 157.001 59.6113Z" fill="#263238"/>
<path d="M154.65 132.9C154.748 132.9 154.748 131.724 154.65 129.96C154.552 128.099 154.454 125.551 154.454 122.808C154.454 119.967 154.454 117.517 154.552 115.655C154.552 113.794 154.65 112.716 154.552 112.716C154.454 112.716 154.258 113.794 154.062 115.655C153.866 117.517 153.768 120.065 153.768 122.906C153.768 125.747 153.964 128.295 154.16 130.156C154.356 131.822 154.65 132.9 154.65 132.9Z" fill="#FAFAFA"/>
<path d="M157.1 133.39C157.198 133.39 157.198 132.214 157.198 130.45C157.198 128.393 157.198 125.943 157.1 123.298C157.1 120.652 157.1 118.203 157.1 116.145C157.1 114.284 157.1 113.206 157.002 113.206C156.904 113.206 156.806 114.284 156.61 116.145C156.512 118.007 156.414 120.456 156.414 123.298C156.414 126.139 156.512 128.589 156.708 130.45C156.904 132.312 157.002 133.39 157.1 133.39Z" fill="#FAFAFA"/>
<path d="M109.776 253.61L100.86 278.203L88.1229 295.643C87.2411 296.917 87.535 298.68 88.9068 299.464C89.6906 299.954 90.5724 300.052 91.3562 299.66C96.4511 297.505 115.263 289.666 115.851 287.805C116.537 285.649 128.588 259.195 128.588 259.195L109.776 253.61Z" fill="#C7C2CC"/>
<g opacity="0.6">
<g opacity="0.6">
<path opacity="0.6" d="M88.8071 299.562L116.339 286.237L115.947 287.315C115.555 288.196 114.968 288.98 114.086 289.372C111.832 290.548 105.464 293.781 91.2566 299.758C90.5707 300.15 89.591 300.052 88.8071 299.562Z" fill="white"/>
</g>
</g>
<g opacity="0.6">
<g opacity="0.6">
<g opacity="0.6">
<path opacity="0.6" d="M114.478 276.439C113.694 276.635 113.106 277.517 113.302 278.301C113.498 279.085 114.282 279.672 115.066 279.476C115.85 279.281 116.536 278.301 116.34 277.517C116.144 276.733 115.066 276.145 114.38 276.439" fill="white"/>
</g>
</g>
</g>
<path d="M98.6065 291.136C98.4105 291.136 98.4105 289.666 97.2348 288.393C96.059 287.119 94.5893 286.923 94.5893 286.727C94.5893 286.629 94.9812 286.629 95.5691 286.727C96.157 286.825 96.9408 287.217 97.6267 288.001C98.3125 288.686 98.6065 289.568 98.7044 290.156C98.7044 290.744 98.6065 291.136 98.6065 291.136Z" fill="#263238"/>
<path d="M95.5681 293.683C95.3722 293.781 94.9802 292.606 93.8045 291.822C92.7267 290.94 91.551 290.744 91.551 290.548C91.551 290.352 92.9227 290.352 94.1964 291.332C95.4701 292.312 95.6661 293.683 95.5681 293.683Z" fill="#263238"/>
<path d="M103.406 288.196C103.21 288.294 102.524 286.531 100.858 285.061C99.2905 283.591 97.5269 283.004 97.5269 282.808C97.5269 282.71 99.4865 283.004 101.25 284.669C103.014 286.237 103.602 288.098 103.406 288.196Z" fill="#263238"/>
<path d="M106.739 280.848C106.641 280.946 105.465 279.868 103.8 279.084C102.036 278.301 100.468 278.203 100.566 278.007C100.566 277.909 102.232 277.713 104.094 278.497C105.857 279.476 106.935 280.848 106.739 280.848Z" fill="#263238"/>
<path d="M109.58 273.696C109.482 273.793 108.404 272.422 106.542 271.834C104.681 271.148 103.015 271.54 103.015 271.344C103.015 271.246 103.407 271.05 104.093 270.952C104.779 270.854 105.758 270.854 106.738 271.246C107.718 271.638 108.502 272.226 108.992 272.716C109.482 273.304 109.678 273.696 109.58 273.696Z" fill="#263238"/>
<path d="M107.13 270.56C107.13 270.56 107.13 270.168 107.424 269.581C107.718 268.993 108.208 268.209 109.09 267.425C109.481 267.033 110.069 266.641 110.853 266.543C111.245 266.543 111.735 266.739 111.931 267.229C112.127 267.621 112.029 268.111 111.931 268.503C111.343 270.071 109.383 271.05 107.522 270.56C105.66 270.071 104.485 268.405 104.289 266.837C104.289 266.445 104.289 265.955 104.68 265.661C105.072 265.27 105.562 265.368 105.954 265.563C106.64 265.955 106.934 266.543 107.228 267.033C107.816 268.013 108.012 268.993 108.11 269.581C108.208 270.168 108.208 270.56 108.11 270.56C108.012 270.56 107.914 269.091 106.738 267.229C106.444 266.739 106.052 266.249 105.562 265.955C105.366 265.857 105.072 265.857 104.876 266.053C104.68 266.249 104.68 266.543 104.68 266.837C104.876 268.209 105.954 269.679 107.522 270.071C109.09 270.462 110.755 269.581 111.245 268.405C111.343 268.111 111.441 267.817 111.343 267.523C111.245 267.327 111.049 267.131 110.755 267.131C110.167 267.131 109.677 267.523 109.285 267.817C107.62 269.189 107.228 270.56 107.13 270.56Z" fill="#263238"/>
<path d="M71.9554 247.241L72.7392 267.229C72.7392 267.229 52.6535 274.773 52.4576 278.497L91.3553 278.399L91.4532 247.143L71.9554 247.241Z" fill="#C7C2CC"/>
<g opacity="0.6">
<g opacity="0.6">
<path opacity="0.6" d="M84.7893 265.465C85.5732 265.661 86.0631 266.543 85.8671 267.229C85.6711 268.013 84.8873 268.503 84.1035 268.307C83.3196 268.111 82.7318 267.131 82.9277 266.347C83.2217 265.563 84.2015 265.073 84.8873 265.367" fill="white"/>
</g>
</g>
<g opacity="0.6">
<path opacity="0.6" d="M91.2563 278.301V275.165L53.9263 276.439C53.9263 276.439 52.1627 277.223 52.3586 278.399L91.2563 278.301Z" fill="white"/>
</g>
<path d="M72.1509 267.033C72.1509 267.229 73.1307 267.327 74.0125 267.915C74.9923 268.503 75.4822 269.287 75.5802 269.287C75.7761 269.287 75.4822 268.111 74.3064 267.425C73.2287 266.641 72.0529 266.837 72.1509 267.033Z" fill="#263238"/>
<path d="M68.0362 268.699C68.0362 268.895 68.82 269.189 69.5058 269.973C70.1917 270.756 70.3877 271.638 70.4856 271.638C70.6816 271.638 70.7796 270.56 69.9957 269.581C69.1139 268.601 68.0362 268.503 68.0362 268.699Z" fill="#263238"/>
<path d="M65.6844 273.598C65.8804 273.598 66.0763 272.716 65.5864 271.638C65.0965 270.56 64.2147 270.168 64.1167 270.364C64.0188 270.56 64.6066 271.05 64.9985 271.932C65.4884 272.814 65.5864 273.598 65.6844 273.598Z" fill="#263238"/>
<path d="M72.445 262.428C72.543 262.624 73.4248 262.33 74.5026 262.428C75.5804 262.428 76.3642 262.82 76.5602 262.624C76.6581 262.526 75.8743 261.742 74.6006 261.742C73.2289 261.742 72.3471 262.33 72.445 262.428Z" fill="#263238"/>
<g opacity="0.3">
<path opacity="0.3" d="M72.1507 251.161L72.2487 254.786L91.3546 254.492V251.259L72.1507 251.161Z" fill="black"/>
</g>
<path d="M72.3461 258.411C72.3461 258.509 73.1299 258.607 74.3056 258.411C74.8935 258.313 75.5794 258.117 76.3632 257.823C76.7551 257.627 77.147 257.431 77.441 257.235C77.6369 257.137 77.8329 257.039 78.0288 256.745C78.2248 256.549 78.3228 256.059 78.1268 255.765C77.9309 255.472 77.5389 255.374 77.245 255.374C76.9511 255.374 76.7551 255.472 76.5592 255.472C76.1672 255.569 75.6773 255.765 75.3834 255.863C74.5996 256.157 74.0117 256.647 73.6198 257.039C72.738 257.921 72.444 258.607 72.444 258.607C72.542 258.705 72.9339 258.117 73.9137 257.333C74.4036 256.941 74.9915 256.647 75.6774 256.353C76.0693 256.255 76.3632 256.059 76.7551 255.961C77.147 255.863 77.539 255.863 77.6369 256.059C77.6369 256.157 77.6369 256.157 77.6369 256.255C77.539 256.353 77.343 256.451 77.245 256.549C76.8531 256.745 76.5592 256.941 76.2652 257.137C75.5794 257.431 74.8935 257.725 74.4036 257.823C73.0319 258.215 72.3461 258.313 72.3461 258.411Z" fill="#263238"/>
<path d="M72.6405 258.705C72.7385 258.705 73.1304 258.019 73.1304 256.843C73.1304 256.256 73.1304 255.472 72.8364 254.688C72.7385 254.296 72.5425 253.904 72.3466 253.512C72.1506 253.12 71.8567 252.63 71.0728 252.532C70.6809 252.532 70.387 252.826 70.289 253.12C70.191 253.414 70.093 253.61 70.093 253.806C69.9951 254.296 69.9951 254.688 70.093 255.08C70.191 255.864 70.5829 256.549 70.9748 257.137C71.7587 258.117 72.5425 258.411 72.5425 258.313C72.6405 258.215 71.9546 257.823 71.3668 256.843C71.0728 256.353 70.7789 255.766 70.7789 254.982C70.7789 254.59 70.7789 254.198 70.7789 253.904C70.8769 253.512 70.9748 253.12 71.1708 253.218C71.3668 253.218 71.6607 253.512 71.8567 253.806C72.0526 254.198 72.2486 254.492 72.3466 254.884C72.6405 255.57 72.7385 256.256 72.7385 256.843C72.7385 257.921 72.5425 258.607 72.6405 258.705Z" fill="#263238"/>
<path d="M91.3562 151.222C114.283 153.573 144.755 156.708 144.755 156.708L140.64 194.136C140.64 194.136 95.8632 182.281 96.2551 183.261C96.5491 184.241 94.1976 262.82 94.1976 262.82H67.2533L66.7634 173.855C66.4695 160.432 78.031 149.85 91.3562 151.222Z" fill="#263238"/>
<path d="M199.721 166.311V177.872C199.721 185.808 190.707 194.137 182.868 194.137H176.794C171.993 194.137 164.448 190.609 160.529 187.768L158.178 186.102L130.156 273.01C130.156 273.01 98.0184 267.229 98.0184 266.249C98.0184 265.269 119.77 195.116 129.764 162.489C133.879 149.164 148.086 141.424 161.313 145.931C161.803 146.127 162.195 146.225 162.685 146.421C176.99 152.202 199.721 166.311 199.721 166.311Z" fill="#263238"/>
<path d="M98.0187 266.249C98.0187 266.249 98.1167 266.151 98.1167 265.955C98.2147 265.661 98.3127 265.367 98.5086 265.073C98.8026 264.29 99.2925 263.016 99.7824 261.448C100.86 258.313 102.33 253.708 104.093 248.025C107.719 236.659 112.422 220.983 117.713 203.64C120.358 194.92 122.807 186.69 125.061 179.146C126.139 175.422 127.217 171.797 128.196 168.466C128.686 166.8 129.176 165.135 129.666 163.665C130.156 162.097 130.548 160.628 131.136 159.256C132.213 156.512 133.977 154.455 135.643 152.887C137.406 151.32 138.974 150.144 140.346 149.164C141.717 148.282 142.795 147.596 143.579 147.106C143.873 146.911 144.167 146.715 144.461 146.617C144.657 146.519 144.755 146.421 144.755 146.421C144.755 146.421 144.657 146.421 144.461 146.519C144.265 146.617 143.971 146.813 143.579 147.008C142.795 147.4 141.717 148.086 140.248 148.968C138.876 149.85 137.21 151.026 135.349 152.593C133.585 154.161 131.822 156.317 130.646 159.06C130.058 160.432 129.568 161.901 129.078 163.469C128.588 165.037 128.098 166.604 127.608 168.27C126.629 171.601 125.551 175.226 124.375 178.95C122.122 186.494 119.574 194.724 117.027 203.444C111.834 220.787 107.033 236.463 103.604 247.829C101.84 253.512 100.468 258.019 99.4884 261.252C98.9985 262.82 98.6066 263.996 98.3127 264.877C98.2147 265.269 98.1167 265.563 98.0187 265.857C98.0187 266.151 98.0187 266.249 98.0187 266.249Z" fill="#455A64"/>
<path d="M91.258 171.993C91.062 172.091 92.6297 174.443 93.9034 177.48C95.1771 180.615 95.765 183.261 95.961 183.261C96.1569 183.261 95.863 180.419 94.4913 177.186C93.2176 174.051 91.356 171.895 91.258 171.993Z" fill="#455A64"/>
<path d="M86.065 175.618C85.9671 175.814 88.3186 176.794 90.6701 178.754C93.1195 180.615 94.5892 182.673 94.7852 182.575C94.9811 182.477 93.6094 180.223 91.062 178.264C88.7105 176.206 86.163 175.52 86.065 175.618Z" fill="#455A64"/>
<path d="M129.86 273.01C130.056 273.108 137.601 249.789 146.811 221.081C156.021 192.373 163.271 168.956 163.075 168.956C162.879 168.858 155.335 192.177 146.125 220.885C136.915 249.593 129.664 272.912 129.86 273.01Z" fill="#455A64"/>
<path d="M164.251 137.407L72.4445 138.289L55.2981 89.8869L122.12 90.3768L137.601 133.88L164.251 134.271V137.407Z" fill="#455A64"/>
<path d="M90.4516 115.115C90.164 113.078 91.5814 111.195 93.6175 110.907C95.6536 110.619 97.5374 112.037 97.8251 114.073C98.1128 116.109 96.6954 117.993 94.6592 118.28C92.6231 118.568 90.7393 117.151 90.4516 115.115Z" fill="white"/>
<path d="M171.7 6.40862C170.818 3.17531 168.368 1.60764 165.233 0.529869C162.098 -0.547902 158.375 0.039973 155.729 2.09753C153.965 3.46924 152.594 5.42882 150.438 6.11468C147.009 7.29043 142.894 4.74297 139.563 6.31064C137.603 7.19245 136.427 9.64193 137.015 11.6995C137.603 13.7571 139.661 15.4227 141.816 15.3247C139.563 16.1086 138.877 19.3419 140.15 21.3994C141.424 23.457 144.168 24.1428 146.519 23.7509C148.871 23.261 150.928 21.8893 152.79 20.2237C154.553 18.656 156.219 16.7944 158.081 15.3247C160.04 13.855 162.294 12.7773 164.743 12.8752C167.976 13.0712 170.818 15.5207 172.288 18.4601C173.757 21.3994 174.051 24.7307 174.247 27.964C174.443 31.1973 174.443 34.5286 175.423 37.664C175.521 38.0559 175.717 38.4478 176.109 38.5458C176.599 38.7417 177.089 38.1539 177.382 37.664C180.322 32.1771 182.183 26.1024 182.869 19.8318C183.261 16.2065 183.163 12.7773 181.204 9.73991C179.244 6.70255 174.247 4.54701 171.7 6.40862Z" fill="#263238"/>
<path d="M178.067 21.5954L179.733 58.1416C180.027 64.3143 179.145 73.5243 169.347 73.5243C160.823 72.8385 158.276 64.9022 157.982 59.1214C157.884 56.378 157.786 54.1245 157.688 53.8305C157.688 53.8305 148.38 53.3406 147.204 44.2286C146.714 39.8195 146.322 30.6095 146.126 22.1833C145.93 13.1692 152.593 5.62479 161.509 4.645L162.391 4.54702C172.091 4.05712 177.871 11.8955 178.067 21.5954Z" fill="#FFBE9D"/>
<path d="M157.686 53.6346C157.686 53.6346 163.565 53.5367 169.345 48.9316C169.345 48.9316 167.19 55.8882 157.98 55.9861L157.686 53.6346Z" fill="#EB996E"/>
<path d="M149.554 27.9639C149.652 28.6498 150.24 29.2377 150.926 29.1397C151.612 29.1397 152.2 28.5518 152.2 27.768C152.102 27.0821 151.514 26.4942 150.828 26.5922C150.044 26.6902 149.456 27.2781 149.554 27.9639Z" fill="#263238"/>
<path d="M148.671 26.3964C148.867 26.5924 149.749 25.7106 151.219 25.5146C152.59 25.3187 153.766 26.0045 153.864 25.8086C153.962 25.7106 153.766 25.4167 153.276 25.1227C152.786 24.8288 152.002 24.6328 151.121 24.7308C150.239 24.8288 149.553 25.2207 149.161 25.6126C148.671 26.0045 148.573 26.3964 148.671 26.3964Z" fill="#263238"/>
<path d="M163.368 26.9843C163.466 27.6702 164.054 28.258 164.739 28.1601C165.425 28.1601 166.013 27.5722 166.013 26.7884C165.915 26.1025 165.327 25.5146 164.641 25.6126C163.956 25.7106 163.368 26.2985 163.368 26.9843Z" fill="#263238"/>
<path d="M162.585 25.2208C162.781 25.4167 163.662 24.5349 165.132 24.339C166.504 24.143 167.68 24.8289 167.778 24.6329C167.876 24.5349 167.68 24.241 167.19 23.9471C166.7 23.6531 165.916 23.4572 165.034 23.5551C164.152 23.6531 163.467 24.045 163.075 24.4369C162.585 24.8289 162.487 25.1228 162.585 25.2208Z" fill="#263238"/>
<path d="M158.568 36.1943C158.568 36.0963 157.686 36.0963 156.217 35.9983C155.825 35.9983 155.531 35.9983 155.433 35.7044C155.335 35.4105 155.433 35.0185 155.531 34.6266C155.825 33.7448 156.021 32.765 156.315 31.7852C157.392 27.6701 158.078 24.4368 157.98 24.3388C157.784 24.3388 156.805 27.5721 155.727 31.5893C155.433 32.5691 155.237 33.5488 155.041 34.4307C154.943 34.8226 154.747 35.3125 155.041 35.9003C155.139 36.1943 155.433 36.2923 155.727 36.3902C155.923 36.3902 156.217 36.3902 156.315 36.3902C157.686 36.3902 158.568 36.2923 158.568 36.1943Z" fill="#263238"/>
<path d="M162.781 36.7823C162.585 36.7823 162.683 38.35 161.507 39.5258C160.331 40.7995 158.666 40.7995 158.666 40.9954C158.666 41.0934 159.058 41.2894 159.743 41.1914C160.429 41.1914 161.409 40.7995 162.095 40.1136C162.781 39.3298 163.075 38.448 163.075 37.7621C163.075 37.0763 162.879 36.7823 162.781 36.7823Z" fill="#263238"/>
<path d="M161.605 19.7339C161.801 20.1258 163.173 19.7339 164.839 19.8318C166.504 19.8318 167.876 20.1258 168.072 19.8318C168.17 19.6359 167.876 19.3419 167.288 19.048C166.7 18.7541 165.819 18.4601 164.839 18.4601C163.859 18.4601 162.977 18.7541 162.389 19.048C161.801 19.244 161.507 19.5379 161.605 19.7339Z" fill="#263238"/>
<path d="M148.671 22.2815C148.965 22.5754 149.847 22.1835 151.023 21.9875C152.198 21.7916 153.178 21.9875 153.374 21.5956C153.472 21.3996 153.276 21.1057 152.786 20.8118C152.296 20.5178 151.611 20.4198 150.827 20.5178C150.043 20.6158 149.357 21.0077 148.965 21.3996C148.671 21.7916 148.573 22.1835 148.671 22.2815Z" fill="#263238"/>
<path d="M177.97 28.4539C178.166 28.356 184.045 25.9065 184.535 32.1771C185.024 38.4478 178.558 37.664 178.558 37.468C178.558 37.37 177.97 28.4539 177.97 28.4539Z" fill="#FFBE9D"/>
<path d="M180.321 35.0185C180.321 35.0185 180.419 35.1165 180.615 35.1165C180.811 35.2144 181.105 35.2144 181.399 35.1165C182.085 34.8225 182.574 33.7447 182.476 32.569C182.476 31.9811 182.281 31.4912 182.085 31.0013C181.889 30.5114 181.497 30.2175 181.203 30.2175C180.909 30.1195 180.615 30.4135 180.615 30.6094C180.517 30.8054 180.615 30.9034 180.517 30.9034C180.517 30.9034 180.419 30.8054 180.419 30.5114C180.419 30.4135 180.517 30.2175 180.615 30.1195C180.713 30.0215 181.007 29.9236 181.203 29.9236C181.693 29.9236 182.183 30.3155 182.379 30.8054C182.672 31.2953 182.868 31.8831 182.868 32.569C182.966 33.8427 182.379 35.1165 181.497 35.4104C181.105 35.6063 180.713 35.4104 180.517 35.3124C180.419 35.1165 180.321 35.0185 180.321 35.0185Z" fill="#EB996E"/>
<path d="M144.068 20.4197C148.183 21.1055 152.69 19.5378 155.532 16.5005C157.589 14.345 158.961 11.5036 161.704 10.3278C163.566 9.54398 165.623 9.73994 167.485 10.5238C169.347 11.3076 170.914 12.5813 172.188 14.051C170.914 18.95 172.678 24.0449 174.344 28.7479C174.54 29.2378 174.736 29.8257 175.225 30.1196C176.009 30.6095 177.087 30.0216 177.675 29.3358C178.557 28.16 178.851 26.5923 178.949 25.0247C179.243 21.5954 178.949 18.0682 177.773 14.8349C176.695 11.6015 174.736 8.56419 171.992 6.50662C168.563 3.86119 164.056 2.78342 159.843 3.37129C155.532 3.86119 151.514 5.91875 148.379 8.85812C146.909 10.2298 145.636 11.7975 144.95 13.7571" fill="#263238"/>
<path d="M288 137.701V146.421H240.186V275.067H235.777V146.421L36.0957 147.401V281.628H31.7846V147.107L0.921143 147.401V137.015L288 137.701Z" fill="#263238"/>
<path d="M257.429 144.657L238.519 158.276L240.185 159.844L259.193 145.539L257.429 144.657Z" fill="#263238"/>
<path d="M13.9524 145.931L35.8998 161.51L34.2341 163.077L12.1888 146.813L13.9524 145.931Z" fill="#263238"/>
<path d="M169.053 134.565H218.435V138.191H169.053V134.565Z" fill="#263238"/>
</svg>
