<svg width="16" height="15" viewBox="0 0 16 15" fill="none" xmlns="http://www.w3.org/2000/svg">
<path opacity="0.8" d="M14.8006 13.7354L12.0177 10.975C13.0979 9.62807 13.6211 7.91846 13.4795 6.19767C13.338 4.47689 12.5425 2.87574 11.2567 1.72344C9.97085 0.571149 8.2924 -0.0446995 6.56645 0.00252864C4.8405 0.0497567 3.19824 0.756472 1.97736 1.97736C0.756472 3.19824 0.0497567 4.8405 0.00252864 6.56645C-0.0446995 8.2924 0.571149 9.97085 1.72344 11.2567C2.87574 12.5425 4.47689 13.338 6.19767 13.4795C7.91846 13.6211 9.62807 13.0979 10.975 12.0177L13.7354 14.7781C13.8052 14.8484 13.8881 14.9042 13.9796 14.9423C14.071 14.9804 14.169 15 14.268 15C14.3671 15 14.4651 14.9804 14.5565 14.9423C14.6479 14.9042 14.7309 14.8484 14.8006 14.7781C14.9358 14.6382 15.0114 14.4513 15.0114 14.2568C15.0114 14.0622 14.9358 13.8753 14.8006 13.7354ZM6.76679 12.0177C5.72827 12.0177 4.71307 11.7097 3.84957 11.1327C2.98607 10.5558 2.31305 9.73568 1.91562 8.77621C1.5182 7.81674 1.41421 6.76097 1.61682 5.7424C1.81943 4.72383 2.31952 3.78822 3.05387 3.05387C3.78822 2.31952 4.72383 1.81943 5.7424 1.61682C6.76097 1.41421 7.81674 1.5182 8.77621 1.91562C9.73568 2.31305 10.5558 2.98607 11.1327 3.84957C11.7097 4.71307 12.0177 5.72827 12.0177 6.76679C12.0177 8.15941 11.4644 9.49499 10.4797 10.4797C9.49499 11.4644 8.15941 12.0177 6.76679 12.0177Z" fill="#363738"/>
</svg>
